<svg xmlns="http://www.w3.org/2000/svg" viewBox="0 0 600 771.45"><defs><style>.cls-1{font-size:116px;fill:#fff;font-family:MuseoSans-900, Museo Sans;font-weight:900;letter-spacing:-0.1em;}.cls-2{letter-spacing:-0.09em;}.cls-3{letter-spacing:-0.07em;}.cls-4{fill:none;stroke:#fff;stroke-miterlimit:10;stroke-width:3px;}</style></defs><g id="Layer_2" data-name="Layer 2"><g id="Layer_1-2" data-name="Layer 1"><text class="cls-1" transform="translate(0 685.37)">SI<tspan class="cls-2" x="83.86" y="0">X</tspan><tspan class="cls-3" x="152.07" y="0">T</tspan><tspan x="216.1" y="0">YFOUR</tspan></text><polygon class="cls-4" points="132.17 299.33 191.85 332.45 252.68 301.8 191.85 271.15 132.17 299.33"/><polygon class="cls-4" points="191.85 393.74 9.36 301.8 252.75 179.33 313.58 209.98 252.68 241.33 373.17 301.8 191.85 393.74"/><polyline class="cls-4" points="9.36 301.8 9.36 363.1 191.85 455.04 374.35 363.1 373.17 301.8"/><line class="cls-4" x1="191.85" y1="393.74" x2="191.85" y2="455.04"/><line class="cls-4" x1="191.85" y1="271.16" x2="191.85" y2="332.45"/><line class="cls-4" x1="313.58" y1="209.98" x2="313.52" y2="271.16"/><polygon class="cls-4" points="435.18 209.86 191.85 332.45 313.52 393.74 191.85 455.04 252.68 485.68 374.35 424.39 435.18 455.04 496.01 424.39 433.02 393.27 496.01 363.1 435.18 332.45 374.35 363.1 312.02 332.27 496.01 240.51 435.18 209.86"/><line class="cls-4" x1="252.68" y1="485.68" x2="252.68" y2="546.98"/><line class="cls-4" x1="374.35" y1="424.39" x2="374.35" y2="485.68"/><polyline class="cls-4" points="496.01 240.51 496.01 301.8 435.18 332.45"/><polyline class="cls-4" points="496.01 363.1 496.01 424.39 496.01 485.68 438.02 516.33 374.35 485.68 252.68 546.98 191.85 514.27 191.85 455.04"/><polyline class="cls-4" points="191.85 332.45 191.85 391.27 252.68 424.39"/><line class="cls-4" x1="438.02" y1="516.33" x2="435.18" y2="455.04"/><polygon class="cls-4" points="313.44 148.71 313.59 209.86 374.43 240.51 374.43 179.22 435.26 148.57 374.43 117.92 313.44 148.71"/><polyline class="cls-4" points="435.26 148.57 435.26 210.04 374.43 240.51"/><line class="cls-4" x1="313.44" y1="148.71" x2="374.43" y2="179.21"/><line class="cls-4" x1="313.52" y1="148.71" x2="374.5" y2="179.21"/><polygon class="cls-4" points="252.53 32.47 252.68 93.62 313.52 124.27 313.52 62.97 374.35 32.33 313.52 1.68 252.53 32.47"/><polyline class="cls-4" points="374.35 32.33 374.35 93.8 313.52 124.27"/><line class="cls-4" x1="252.53" y1="32.47" x2="313.52" y2="62.97"/></g></g></svg>